<svg xmlns="http://www.w3.org/2000/svg" viewBox="0 0 415.3 424.88"><defs><style>.cls-1{fill:#ff5972;}.cls-2{fill:#d30029;}.cls-3{fill:#eff48f;}</style></defs><title>Asset 1</title><g id="Layer_2" data-name="Layer 2"><g id="Layer_1-2" data-name="Layer 1"><path class="cls-1" d="M202.41,424.67c-34-2.59-96.37-10.23-126.76-50S33.23,291.07,28.47,258.21C24.14,228.3,6.83,198.33,4.3,174.94,2.78,160.84-13.26,60.58,33.44,20.44,64.76,15.55,110,115.68,141.61,141.7,175,130.81,188.22,130.79,205.93,131c16.45.21,41.14,7.51,55.54,16.41C291.25,98.17,382.69-2.56,411.6.05c15.09,1.36-19.77,201.78-36,245.1s-30.81,103.59-66.51,133.39C269,412,231,426.85,202.41,424.67Z"/><path class="cls-2" d="M181.73,336.09c-2.52,1.26-7.57,3.78-7.57,10.09,0,8.93,29,22.74,29,36.62,0,11.36-10.84,13.67-17.68,16.39-6.31,2.52-20.29,2.64-18.93,5,.43.76,34.59-7.4,39.64-7.4,6,0,4.53-.14,26,7.44-3.78-6.31-24-6.27-24-20.21,0-10.09,12.25-16.84,15.15-18.92,8.84-6.3,12.63-8.82,12.63-16.39s-1.25-8.84-5-10.1a81.67,81.67,0,0,0-25.24-5.07C192.43,333,184.26,334.83,181.73,336.09Z"/><path class="cls-3" d="M126.27,241.41c22.71,0,35.32,13.9,35.32,25.26s-1.29,32.81-26.53,32.8-37.85-17.69-37.84-31.58S116.17,241.4,126.27,241.41Z"/><path class="cls-3" d="M273.91,247.81c16.41,0,32.81,8.85,32.8,25.26s-11.38,32.8-29,32.79-30.27-15.16-30.27-30.3S257.51,247.8,273.91,247.81Z"/><path d="M109.84,267.9a22.6,22.6,0,0,0,22.71,22.73c13.88,0,21.46-13.87,21.46-21.44s-5-20.82-20.81-20.83S109.85,260.33,109.84,267.9Z"/><path d="M272.65,251.6c10.09,0,21.45,6.32,21.44,21.46s-8.85,22.71-18.94,22.71S256.22,288.18,255,274.3,262.55,251.59,272.65,251.6Z"/><path d="M229.68,354.53s-8.84,2.52-10.1,5S229.68,357.05,229.68,354.53Z"/><path d="M184.25,353.76s6.31,0,8.83,2.53,2.52,3.79,2.52,3.79S188,357.55,184.25,353.76Z"/><path class="cls-2" d="M282.81,150.64s24,10.11,37.84,26.53,31.52,41.66,31.52,41.66S410.33,44.71,399,34.61,282.81,150.64,282.81,150.64Z"/><path class="cls-2" d="M120,148s-29,7.55-44.18,27.74S43,230,43,230s-18.61-46-23.92-92.14C14.05,94.33,22,50.64,33,45.75,46.88,39.44,120,148,120,148Z"/><path d="M239.78,344.44s40-11.75,80.63-21.18c42.13-9.77,48.67-9.77,48.67-9.77Z"/><path d="M239.78,350.16s75,.12,103.59.88c31.68.83,65.57,3.67,64.21,4.12Z"/><path d="M242.34,360.78l108.72,22.11s-36.83-6-65.47-12S242.34,360.78,242.34,360.78Z"/><path d="M167.85,340.61s-40-11.8-80.6-21.28c-42.12-9.82-48.66-9.83-48.66-9.83Z"/><path d="M167.85,346.33s-75,0-103.6.75c-31.67.8-65.57,3.59-64.21,4.05Z"/><path d="M165.27,356.94l-108.74,22S93.36,373,122,367.05,165.27,356.94,165.27,356.94Z"/></g></g></svg>